<?xml version="1.0" encoding="UTF-8" standalone="no"?>
<!-- Generator: Adobe Illustrator 26.0.3, SVG Export Plug-In . SVG Version: 6.00 Build 0)  -->

<svg
   version="1.1"
   id="Layer_1"
   x="0px"
   y="0px"
   viewBox="0 0 640 640"
   style="enable-background:new 0 0 640 640;"
   xml:space="preserve"
   sodipodi:docname="cakeIcon.svg"
   inkscape:version="1.1.2 (0a00cf5339, 2022-02-04)"
   xmlns:inkscape="http://www.inkscape.org/namespaces/inkscape"
   xmlns:sodipodi="http://sodipodi.sourceforge.net/DTD/sodipodi-0.dtd"
   xmlns="http://www.w3.org/2000/svg"
   xmlns:svg="http://www.w3.org/2000/svg"><defs
   id="defs29" /><sodipodi:namedview
   id="namedview27"
   pagecolor="#ffffff"
   bordercolor="#666666"
   borderopacity="1.0"
   inkscape:pageshadow="2"
   inkscape:pageopacity="0.0"
   inkscape:pagecheckerboard="0"
   showgrid="false"
   inkscape:zoom="1.1765625"
   inkscape:cx="208.6587"
   inkscape:cy="320"
   inkscape:window-width="1920"
   inkscape:window-height="1043"
   inkscape:window-x="0"
   inkscape:window-y="0"
   inkscape:window-maximized="1"
   inkscape:current-layer="Layer_1" />
<style
   type="text/css"
   id="style2">
	.st0{fill:#2F1814;}
	.st1{fill:#5B3423;}
	.st2{fill:#9F8C5C;}
	.st3{fill:#9E6944;}
	.st4{fill:#9E6844;}
</style>
<g
   id="g24"
   transform="matrix(1.3825225,0,0,1.3825225,-108.8297,-167.73355)">
	<g
   id="g22">
		<path
   class="st0"
   d="m 399.95,477.25 c 0,14.48 0,28.96 0,43.81 -9.37,0.83 -18.47,1.46 -27.52,2.48 -30.75,3.46 -61.62,2.42 -92.44,2.2 -12.93,-0.09 -25.84,-1.97 -38.77,-3.02 -6.66,-0.54 -13.34,-0.87 -19.97,-1.66 -8.11,-0.97 -16.22,-2.13 -24.26,-3.58 -9.9,-1.78 -19.76,-3.86 -29.6,-5.98 -7.37,-1.59 -14.41,-4.04 -21.42,-6.98 -12.34,-5.18 -24.81,-9.79 -35.87,-17.64 -9.48,-6.73 -14.65,-15.19 -14.63,-27.05 0.11,-72.38 0.05,-144.76 0.09,-217.14 0,-1.47 0.48,-2.94 0.74,-4.41 -0.55,5 0.76,9.69 3.75,13.5 2.82,3.59 6.17,6.95 9.85,9.63 14.97,10.9 32.14,17.38 49.7,22.32 27.28,7.68 55.28,11.78 83.55,13.71 19.01,1.3 38.05,2.93 57.09,3 22.25,0.08 44.52,-1.17 66.76,-2.26 10.93,-0.54 21.82,-2.02 32.73,-3.07 0.08,15.68 0.17,31.37 0.25,47.05 0,7.2 -0.01,14.41 -0.01,21.61 0.01,22.61 0.02,45.23 0.02,67.84 -0.01,7.2 -0.02,14.41 -0.03,21.61 -0.01,8.01 -0.01,16.02 -0.01,24.03 z"
   id="path4" />
		<path
   class="st1"
   d="m 399.72,295.11 c -10.91,1.05 -21.8,2.54 -32.73,3.07 -22.24,1.09 -44.51,2.34 -66.76,2.26 -19.03,-0.07 -38.07,-1.7 -57.09,-3 -28.27,-1.94 -56.27,-6.04 -83.55,-13.71 -17.56,-4.94 -34.73,-11.42 -49.7,-22.32 -3.68,-2.68 -7.03,-6.04 -9.85,-9.63 -2.99,-3.81 -4.3,-8.5 -3.75,-13.5 0.2,-7.49 4.26,-12.97 9.68,-17.47 19.25,-15.99 42.81,-21.83 66.37,-27.1 53.94,-12.06 108.7,-14.95 163.79,-13.17 31.94,1.03 63.69,3.98 95.13,9.87 21.06,3.95 41.84,8.99 61.57,17.58 10.64,4.64 20.93,9.9 28.6,19.09 4.13,4.95 6.17,10.47 5.16,16.95 -0.58,1.32 -1.14,2.64 -1.73,3.95 -3.42,7.56 -9.9,12.12 -16.34,16.73 -13.85,-1.08 -27.7,-2.21 -41.55,-3.21 -9.11,-0.66 -18.24,-1.06 -27.36,-1.68 -14.52,-0.99 -29.04,-2.08 -43.56,-3.1 -8.45,-0.59 -16.91,-1.11 -25.36,-1.71 -13.48,-0.96 -26.95,-1.96 -40.42,-2.94 1.61,1.73 3.41,2.79 5.22,3.81 12.71,7.16 25.42,14.32 38.13,21.48 7.99,4.6 16.02,9.11 23.9,13.88 1.11,0.66 1.48,2.54 2.2,3.87 z"
   id="path6" />
		<path
   class="st0"
   d="m 508.51,264.7 c 6.44,-4.61 12.92,-9.17 16.34,-16.73 0.59,-1.31 1.16,-2.63 1.73,-3.95 0.09,1.32 0.25,2.63 0.26,3.95 0.01,72.71 0.05,145.42 -0.05,218.13 -0.01,7.64 -4.24,13.28 -10.3,17.62 -7.77,-1.79 -7.97,-2.05 -8.02,-9.88 -0.02,-4.47 -0.08,-8.94 -0.12,-13.41 0,-7.21 0,-14.41 0,-21.62 0,-22.61 0,-45.23 0,-67.84 0.01,-7.2 0.01,-14.4 0.02,-21.61 0,-21.02 -0.01,-42.04 -0.01,-63.06 0.04,-7.2 0.09,-14.4 0.15,-21.6 z"
   id="path8" />
		<path
   class="st2"
   d="m 508.35,460.43 c 0.04,4.47 0.1,8.94 0.12,13.41 0.04,7.84 0.25,8.1 8.02,9.88 -1.11,0.47 -2.57,1.64 -3.28,1.29 -2.46,-1.2 -4.9,-0.58 -7.37,-0.68 -10.14,-0.43 -20.27,-0.96 -30.4,-1.59 -11.42,-0.71 -22.83,-1.58 -34.24,-2.37 -11.55,-0.8 -23.09,-1.59 -34.64,-2.41 -2.21,-0.16 -4.41,-0.47 -6.62,-0.71 0,-8.01 0.01,-16.02 0.01,-24.02 3.46,0.01 6.92,-0.16 10.37,0.07 14.76,0.98 29.52,2.08 44.28,3.12 4.48,0.32 8.98,0.54 13.46,0.88 13.43,1.02 26.86,2.08 40.29,3.13 z"
   id="path10" />
		<path
   class="st2"
   d="m 508.35,370.97 c 0,22.61 0,45.23 0,67.84 -10.54,-0.77 -21.07,-1.62 -31.61,-2.29 -10.43,-0.66 -20.87,-1.06 -31.3,-1.74 -15.16,-0.98 -30.31,-2.11 -45.46,-3.17 -0.01,-22.61 -0.02,-45.23 -0.02,-67.84 14.66,0.81 29.32,1.58 43.97,2.45 7.38,0.44 14.76,1.02 22.14,1.57 14.09,1.05 28.19,2.12 42.28,3.18 z"
   id="path12" />
		<path
   class="st2"
   d="m 508.35,286.3 c 0,21.02 0.01,42.04 0.01,63.06 -3.46,-0.01 -6.92,0.16 -10.37,-0.07 -14.5,-0.97 -28.99,-2.08 -43.48,-3.11 -4.48,-0.32 -8.98,-0.54 -13.46,-0.88 -13.7,-1.03 -27.39,-2.09 -41.09,-3.14 -0.08,-15.68 -0.17,-31.37 -0.25,-47.05 -0.72,-1.32 -1.09,-3.21 -2.2,-3.88 -7.88,-4.77 -15.92,-9.28 -23.9,-13.88 2.56,0.05 5.12,0.02 7.68,0.15 9.65,0.51 19.3,1 28.94,1.65 14.64,0.98 29.28,2.09 43.92,3.13 4.36,0.31 8.72,0.54 13.07,0.87 13.72,1.04 27.43,2.1 41.13,3.15 z"
   id="path14" />
		<path
   class="st3"
   d="m 399.98,431.61 c 15.15,1.06 30.3,2.19 45.46,3.17 10.43,0.68 20.87,1.07 31.3,1.74 10.54,0.67 21.07,1.52 31.61,2.29 0,7.21 0,14.41 0,21.62 -13.43,-1.05 -26.86,-2.11 -40.29,-3.14 -4.48,-0.34 -8.97,-0.57 -13.46,-0.88 -14.76,-1.04 -29.52,-2.14 -44.28,-3.12 -3.44,-0.23 -6.91,-0.06 -10.37,-0.07 0.01,-7.2 0.02,-14.41 0.03,-21.61 z"
   id="path16" />
		<path
   class="st3"
   d="m 399.97,342.16 c 13.7,1.05 27.39,2.11 41.09,3.14 4.48,0.34 8.97,0.56 13.46,0.88 14.49,1.04 28.99,2.14 43.48,3.11 3.44,0.23 6.91,0.06 10.37,0.07 -0.01,7.2 -0.01,14.4 -0.02,21.61 -14.09,-1.06 -28.19,-2.13 -42.28,-3.18 -7.38,-0.55 -14.75,-1.14 -22.14,-1.57 -14.65,-0.87 -29.31,-1.64 -43.97,-2.45 0,-7.21 0.01,-14.41 0.01,-21.61 z"
   id="path18" />
		<path
   class="st4"
   d="m 508.35,286.3 c -13.71,-1.05 -27.42,-2.11 -41.13,-3.15 -4.35,-0.33 -8.72,-0.56 -13.07,-0.87 -14.64,-1.04 -29.28,-2.15 -43.92,-3.13 -9.64,-0.65 -19.29,-1.13 -28.94,-1.65 -2.56,-0.14 -5.12,-0.11 -7.68,-0.15 -12.71,-7.16 -25.42,-14.32 -38.13,-21.48 -1.81,-1.02 -3.61,-2.07 -5.22,-3.81 13.47,0.98 26.95,1.99 40.42,2.94 8.45,0.6 16.91,1.11 25.36,1.71 14.52,1.02 29.03,2.11 43.56,3.1 9.12,0.62 18.25,1.02 27.36,1.68 13.86,1 27.7,2.13 41.55,3.21 -0.06,7.2 -0.11,14.4 -0.16,21.6 z"
   id="path20" />
	</g>
</g>
</svg>
