<?xml version="1.0" encoding="UTF-8" standalone="no"?>
<!-- Generator: Adobe Illustrator 26.0.3, SVG Export Plug-In . SVG Version: 6.00 Build 0)  -->

<svg
   version="1.1"
   id="Layer_1"
   x="0px"
   y="0px"
   viewBox="0 0 640 640"
   style="enable-background:new 0 0 640 640;"
   xml:space="preserve"
   sodipodi:docname="cakeIcon_dark.svg"
   inkscape:version="1.1.2 (0a00cf5339, 2022-02-04)"
   xmlns:inkscape="http://www.inkscape.org/namespaces/inkscape"
   xmlns:sodipodi="http://sodipodi.sourceforge.net/DTD/sodipodi-0.dtd"
   xmlns="http://www.w3.org/2000/svg"
   xmlns:svg="http://www.w3.org/2000/svg"><defs
   id="defs29" /><sodipodi:namedview
   id="namedview27"
   pagecolor="#ffffff"
   bordercolor="#666666"
   borderopacity="1.0"
   inkscape:pageshadow="2"
   inkscape:pageopacity="0.0"
   inkscape:pagecheckerboard="0"
   showgrid="false"
   inkscape:zoom="1.1765625"
   inkscape:cx="232.45684"
   inkscape:cy="320"
   inkscape:window-width="1920"
   inkscape:window-height="1043"
   inkscape:window-x="0"
   inkscape:window-y="0"
   inkscape:window-maximized="1"
   inkscape:current-layer="g22" />
<style
   type="text/css"
   id="style2">
	.st0{fill:#2F1814;}
	.st1{fill:#5B3423;}
	.st2{fill:#9F8C5C;}
	.st3{fill:#9E6944;}
	.st4{fill:#9E6844;}
</style>
<g
   id="g24"
   transform="matrix(1.4836117,0,0,1.4836117,-140.20077,-197.96046)">
	<g
   id="g22">
		<path
   class="st0"
   d="m 390.54561,453.89231 c 0,12.5401 0,25.0802 0,37.94073 -8.11469,0.7188 -15.99555,1.2644 -23.83311,2.14775 -26.63039,2.99646 -53.36471,2.09579 -80.05572,1.90526 -11.19776,-0.078 -22.37819,-1.70607 -33.57595,-2.6154 -5.76775,-0.46766 -11.55282,-0.75345 -17.2946,-1.43761 -7.0235,-0.84004 -14.04699,-1.84464 -21.00986,-3.10038 -8.57369,-1.54153 -17.11274,-3.34287 -25.63446,-5.17885 -6.38263,-1.37699 -12.47948,-3.49876 -18.55035,-6.04488 -10.68679,-4.48604 -21.48617,-8.47843 -31.06445,-15.27676 -8.20996,-5.82837 -12.68733,-13.15498 -12.67,-23.42609 0.0953,-62.68318 0.0433,-125.36636 0.078,-188.04954 0,-1.27305 0.41569,-2.54612 0.64085,-3.81918 -0.47631,4.33014 0.65819,8.39182 3.24762,11.69139 2.4422,3.10904 5.3434,6.0189 8.53038,8.33986 12.96446,9.43971 27.83417,15.05159 43.04165,19.32976 23.62526,6.65111 47.87407,10.20183 72.35672,11.87327 16.46321,1.12583 32.9524,2.53746 49.44159,2.59808 19.26915,0.0693 38.55561,-1.01325 57.81609,-1.95722 9.46571,-0.46766 18.89676,-1.74938 28.34514,-2.65872 0.0693,13.57934 0.14722,27.16734 0.2165,40.74668 0,6.2354 -0.008,12.47947 -0.008,18.71488 0.008,19.58092 0.0173,39.17049 0.0173,58.75141 -0.008,6.2354 -0.0173,12.47948 -0.026,18.71488 -0.008,6.93689 -0.008,13.87379 -0.008,20.81068 z"
   id="path4"
   style="fill:#dddddd;fill-opacity:1;stroke-width:0.866029" />
		<path
   class="st1"
   d="m 390.34643,296.15378 c -9.44838,0.90934 -18.87944,2.19972 -28.34513,2.65872 -19.26049,0.94397 -38.54695,2.0265 -57.8161,1.95722 -16.48053,-0.0606 -32.96972,-1.47225 -49.4416,-2.59808 -24.48264,-1.6801 -48.73145,-5.23082 -72.35672,-11.87327 -15.20747,-4.27817 -30.07719,-9.89005 -43.04164,-19.32976 -3.18698,-2.32096 -6.08819,-5.23082 -8.53038,-8.33986 -2.58943,-3.29957 -3.72393,-7.36125 -3.24761,-11.69139 0.17321,-6.48656 3.68928,-11.2324 8.38316,-15.12953 16.67106,-13.8478 37.0747,-18.90541 57.47834,-23.46939 46.71361,-10.44431 94.13735,-12.94713 141.8469,-11.4056 27.66096,0.89201 55.15738,3.4468 82.38533,8.54771 18.23857,3.42082 36.23465,7.7856 53.32141,15.22479 9.21454,4.01838 18.12599,8.57369 24.76843,16.53249 3.5767,4.28685 5.3434,9.06733 4.46871,14.6792 -0.5023,1.14315 -0.98728,2.28631 -1.49823,3.42081 -2.96182,6.54718 -8.57369,10.49627 -14.15091,14.48867 -11.99451,-0.93532 -23.98901,-1.91392 -35.98351,-2.77996 -7.88953,-0.57158 -15.79638,-0.91799 -23.69455,-1.45493 -12.57475,-0.85736 -25.14949,-1.80134 -37.72423,-2.68469 -7.31795,-0.51095 -14.64455,-0.96128 -21.96249,-1.4809 -11.67408,-0.83139 -23.33949,-1.69742 -35.0049,-2.54613 1.39431,1.49823 2.95316,2.41622 4.52067,3.29957 11.00723,6.20076 22.01446,12.40154 33.02169,18.6023 6.91957,3.98374 13.87379,7.88953 20.6981,12.02049 0.96128,0.57158 1.28172,2.19971 1.90526,3.35152 z"
   id="path6"
   style="fill:#eeeeee;fill-opacity:1;stroke-width:0.866029" />
		<path
   class="st0"
   d="m 484.56172,269.81785 c 5.57723,-3.99239 11.1891,-7.94149 14.15092,-14.48867 0.51096,-1.1345 1.00459,-2.27766 1.49823,-3.42081 0.078,1.14315 0.21651,2.27765 0.22517,3.42081 0.008,62.96897 0.0433,125.93794 -0.0433,188.9069 -0.008,6.61647 -3.67197,11.50087 -8.92011,15.25944 -6.72905,-1.55019 -6.90224,-1.77536 -6.94554,-8.55637 -0.0173,-3.87115 -0.0693,-7.7423 -0.10393,-11.61345 0,-6.24407 0,-12.47947 0,-18.72355 0,-19.58091 0,-39.17049 0,-58.7514 0.008,-6.23541 0.008,-12.47082 0.0173,-18.71489 0,-18.20393 -0.008,-36.40786 -0.008,-54.61179 0.0346,-6.23541 0.078,-12.47081 0.1299,-18.70622 z"
   id="path8"
   style="fill:#dddddd;fill-opacity:1;stroke-width:0.866029" />
		<path
   class="st2"
   d="m 484.42316,439.3257 c 0.0346,3.87115 0.0866,7.7423 0.10392,11.61345 0.0346,6.78967 0.2165,7.01484 6.94555,8.55637 -0.96129,0.40703 -2.22569,1.42029 -2.84057,1.11717 -2.13044,-1.03923 -4.24354,-0.50229 -6.38264,-0.5889 -8.78153,-0.37239 -17.55441,-0.83138 -26.32727,-1.37698 -9.89006,-0.61488 -19.77145,-1.36833 -29.65284,-2.05249 -10.00264,-0.69282 -19.99661,-1.37699 -29.99925,-2.08713 -1.91392,-0.13856 -3.81919,-0.40703 -5.73311,-0.61488 0,-6.93689 0.008,-13.87379 0.008,-20.80202 2.99646,0.008 5.99293,-0.13856 8.98073,0.0606 12.78258,0.8487 25.56517,1.80134 38.34776,2.70201 3.87981,0.27712 7.77695,0.46765 11.65675,0.7621 11.63077,0.88335 23.26154,1.80134 34.89231,2.71067 z"
   id="path10"
   style="fill:#ae9a70;fill-opacity:1;stroke-width:0.866029" />
		<path
   class="st2"
   d="m 484.42316,361.85075 c 0,19.58091 0,39.17049 0,58.7514 -9.12795,-0.66684 -18.24723,-1.40296 -27.37518,-1.9832 -9.03268,-0.57158 -18.07403,-0.91799 -27.1067,-1.50689 -13.12901,-0.84871 -26.24935,-1.82732 -39.36969,-2.74531 -0.008,-19.58092 -0.0173,-39.17049 -0.0173,-58.75141 12.69598,0.70149 25.39197,1.36833 38.07929,2.12177 6.39129,0.38106 12.78259,0.88335 19.17388,1.35967 12.20235,0.90932 24.41336,1.83598 36.61571,2.75397 z"
   id="path12"
   style="fill:#b4a179;fill-opacity:1;stroke-width:0.866029" />
		<path
   class="st2"
   d="m 484.42316,288.52407 c 0,18.20393 0.008,36.40786 0.008,54.61179 -2.99646,-0.008 -5.99292,0.13857 -8.98072,-0.0606 -12.55742,-0.84005 -25.10618,-1.80134 -37.65494,-2.69335 -3.87981,-0.27713 -7.77694,-0.46766 -11.65675,-0.76211 -11.8646,-0.892 -23.72054,-1.80999 -35.58513,-2.71932 -0.0693,-13.57934 -0.14723,-27.16734 -0.21651,-40.74667 -0.62354,-1.14316 -0.94397,-2.77995 -1.90526,-3.36019 -6.82432,-4.13096 -13.78719,-8.03676 -20.6981,-12.02048 2.21703,0.0433 4.43407,0.0173 6.6511,0.1299 8.35718,0.44167 16.71437,0.86603 25.06288,1.42894 12.67866,0.84871 25.35734,1.81001 38.036,2.71067 3.77589,0.26848 7.55177,0.46766 11.319,0.75345 11.88192,0.90067 23.75517,1.81866 35.61977,2.72799 z"
   id="path14"
   style="fill:#beab88;fill-opacity:1;stroke-width:0.866029" />
		<path
   class="st3"
   d="m 390.57159,414.36675 c 13.12034,0.91799 26.24068,1.8966 39.36969,2.74531 9.03267,0.5889 18.07402,0.92665 27.1067,1.50689 9.12795,0.58024 18.24723,1.31636 27.37518,1.9832 0,6.24408 0,12.47948 0,18.72355 -11.63077,-0.90932 -23.26154,-1.82732 -34.89231,-2.71933 -3.87981,-0.29445 -7.76828,-0.49363 -11.65675,-0.76211 -12.78259,-0.90066 -25.56518,-1.85329 -38.34777,-2.702 -2.97914,-0.19919 -5.98426,-0.052 -8.98072,-0.0606 0.008,-6.2354 0.0173,-12.47948 0.026,-18.71488 z"
   id="path16"
   style="fill:#9d6844;fill-opacity:1;stroke-width:0.866029" />
		<path
   class="st3"
   d="m 390.56294,336.90046 c 11.8646,0.90932 23.72053,1.82732 35.58513,2.71932 3.87981,0.29445 7.76828,0.48498 11.65674,0.76211 12.54877,0.90067 25.10618,1.8533 37.65495,2.69335 2.97913,0.19919 5.98425,0.052 8.98072,0.0606 -0.008,6.23541 -0.008,12.47082 -0.0173,18.71489 -12.20235,-0.91799 -24.41336,-1.84465 -36.61571,-2.75398 -6.39129,-0.47632 -12.77392,-0.98727 -19.17388,-1.35966 -12.68732,-0.75344 -25.38331,-1.42029 -38.0793,-2.12178 0,-6.24406 0.008,-12.47947 0.008,-18.71487 z"
   id="path18"
   style="stroke-width:0.866029" />
		<path
   class="st4"
   d="m 484.42316,288.52407 c -11.87326,-0.90933 -23.74652,-1.82732 -35.61978,-2.72799 -3.76722,-0.28579 -7.55177,-0.48498 -11.319,-0.75345 -12.67866,-0.90066 -25.35733,-1.86196 -38.03599,-2.71067 -8.34852,-0.56291 -16.7057,-0.97861 -25.06288,-1.42894 -2.21703,-0.12125 -4.43407,-0.0953 -6.6511,-0.1299 -11.00723,-6.20078 -22.01445,-12.40154 -33.02169,-18.60231 -1.56751,-0.88335 -3.12636,-1.79268 -4.52067,-3.29957 11.66541,0.84871 23.33948,1.7234 35.00489,2.54612 7.31795,0.51962 14.64455,0.9613 21.9625,1.48092 12.57474,0.88335 25.14082,1.82732 37.72422,2.68468 7.89819,0.53695 15.80503,0.88335 23.69455,1.45494 12.00317,0.86602 23.98901,1.84463 35.98351,2.77995 -0.052,6.23541 -0.0953,12.47081 -0.13856,18.70622 z"
   id="path20"
   style="stroke-width:0.866029" />
	</g>
</g>
</svg>
